<svg width="3000" height="1000" viewBox="0 0 3000 1000" fill="none" xmlns="http://www.w3.org/2000/svg">
<g clip-path="url(#clip0_1047_52376)">
<path d="M1006 317H802.146L916.537 -5.5" stroke="#5CCBE1"/>
<path d="M825.978 674.59L825.974 674.604L742.117 913L697 1045M825.978 674.59L825.942 674.578C825.978 674.59 825.978 674.59 825.978 674.59ZM825.978 674.59L825.98 674.588L825.984 674.576L826.004 674.521C826.02 674.469 826.047 674.394 826.083 674.293C826.156 674.09 826.265 673.787 826.416 673.388C826.717 672.593 827.181 671.423 827.821 669.928C829.104 666.941 831.098 662.663 833.943 657.527C839.632 647.252 848.718 633.546 862.291 619.841C889.419 592.446 934.524 565 1006.44 565" stroke="#31C7ED"/>
<path d="M2145.76 753.319L2517.27 -474.853L2517.28 -474.867L2517.28 -474.869L2517.28 -474.882L2517.3 -474.933C2517.3 -474.952 2517.31 -474.974 2517.32 -475.001C2517.33 -475.041 2517.35 -475.09 2517.36 -475.146C2517.42 -475.338 2517.51 -475.621 2517.63 -475.995C2517.88 -476.743 2518.25 -477.845 2518.77 -479.25C2519.81 -482.062 2521.42 -486.085 2523.72 -490.92C2528.33 -500.588 2535.68 -513.486 2546.66 -526.386C2568.62 -552.165 2605.12 -578 2663.34 -578H2889.73L2518.21 650.172L2518.21 650.187V650.189L2518.2 650.201L2518.19 650.253C2518.17 650.3 2518.15 650.37 2518.12 650.466C2518.06 650.658 2517.97 650.941 2517.85 651.315C2517.61 652.063 2517.24 653.164 2516.72 654.569C2515.68 657.381 2514.07 661.405 2511.76 666.24C2507.16 675.908 2499.81 688.806 2488.82 701.705C2466.87 727.485 2430.36 753.319 2372.14 753.319H2145.76Z" stroke="#5CCBE1"/>
<path d="M1771.15 1427.31L1958.25 806.084L1958.26 806.07L1958.26 806.063L1958.27 806.041C1958.27 806.018 1958.28 805.983 1958.3 805.937C1958.3 805.919 1958.31 805.898 1958.32 805.875C1958.34 805.784 1958.38 805.664 1958.43 805.516C1958.55 805.145 1958.74 804.593 1959 803.888C1959.51 802.48 1960.32 800.458 1961.48 798.027C1963.78 793.162 1967.47 786.671 1972.97 780.179C1983.96 767.213 2002.26 754.196 2031.49 754.196H2145.01L1957.9 1375.42L1957.9 1375.43L1957.89 1375.44L1957.89 1375.46L1957.87 1375.5L1957.85 1375.56C1957.83 1375.66 1957.78 1375.8 1957.72 1375.99C1957.6 1376.36 1957.41 1376.91 1957.16 1377.61C1956.64 1379.02 1955.83 1381.04 1954.68 1383.47C1952.37 1388.34 1948.69 1394.83 1943.18 1401.32C1932.19 1414.29 1913.89 1427.31 1884.67 1427.31H1771.15Z" stroke="#5775D0"/>
<path d="M840.352 815.339L-442.781 813.959L-442.796 813.96L-442.799 813.958L-442.811 813.96L-442.865 813.96C-442.884 813.96 -442.908 813.96 -442.936 813.961C-442.977 813.961 -443.029 813.96 -443.088 813.959C-443.288 813.958 -443.585 813.955 -443.978 813.947C-444.765 813.929 -445.927 813.888 -447.422 813.797C-450.414 813.616 -454.732 813.231 -460.025 812.422C-470.611 810.803 -485.082 807.484 -500.602 800.687C-531.619 787.104 -566.888 759.605 -583.685 703.859L-649 487.1L634.134 488.48L634.149 488.481L634.151 488.481L634.164 488.481L634.218 488.481C634.267 488.481 634.341 488.481 634.44 488.48C634.641 488.481 634.938 488.485 635.331 488.494C636.118 488.512 637.28 488.551 638.775 488.643C641.767 488.825 646.084 489.209 651.378 490.017C661.964 491.638 676.434 494.956 691.955 501.753C722.972 515.336 758.24 542.836 775.037 598.58L840.352 815.339Z" stroke="#5CCBE1"/>
<path d="M1593.76 979.567L944.969 979.644L944.954 979.645L944.948 979.645L944.924 979.645C944.9 979.645 944.864 979.645 944.816 979.644C944.797 979.644 944.775 979.644 944.751 979.643C944.656 979.644 944.53 979.642 944.374 979.639C943.985 979.631 943.402 979.61 942.653 979.567C941.155 979.477 938.986 979.287 936.325 978.884C931.002 978.081 923.724 976.425 915.92 973.029C900.334 966.242 882.591 952.48 874.159 924.496L841.407 815.803L1490.19 815.726L1490.21 815.725L1490.22 815.725L1490.24 815.725L1490.28 815.725L1490.35 815.726C1490.45 815.726 1490.59 815.727 1490.79 815.731C1491.18 815.739 1491.76 815.76 1492.51 815.803C1494.01 815.893 1496.18 816.083 1498.84 816.485C1504.16 817.289 1511.44 818.945 1519.24 822.342C1534.83 829.128 1552.57 842.889 1561 870.873L1593.76 979.567Z" stroke="#5775D0"/>
<path d="M3007 113.096L1713.12 113.096L1713.1 113.097L1713.09 113.097L1713.07 113.097C1713.05 113.097 1713.01 113.097 1712.96 113.096C1712.94 113.097 1712.92 113.096 1712.9 113.096C1712.8 113.097 1712.68 113.094 1712.52 113.091C1712.13 113.083 1711.55 113.063 1710.8 113.019C1709.3 112.929 1707.13 112.739 1704.47 112.337C1699.15 111.533 1691.87 109.878 1684.07 106.481C1668.48 99.6941 1650.74 85.9325 1642.31 57.9484L1609.55 -50.7443" stroke="#5775D0"/>
<path d="M78 1430H298.353C355.012 1430 390.546 1408.4 411.919 1386.83C422.612 1376.05 429.769 1365.26 434.251 1357.17C436.492 1353.13 438.063 1349.76 439.074 1347.41C439.578 1346.23 439.944 1345.31 440.181 1344.68C440.3 1344.37 440.386 1344.13 440.443 1343.97C440.472 1343.89 440.493 1343.83 440.506 1343.79L440.522 1343.75L440.525 1343.74L440.526 1343.74L440.529 1343.73L802 317H-109" stroke="#5775D0"/>
</g>
<defs>
<clipPath id="clip0_1047_52376">
<rect width="3000" height="1000" fill="white"/>
</clipPath>
</defs>
</svg>
